<svg width="36" height="36" viewBox="0 0 36 36" fill="none" xmlns="http://www.w3.org/2000/svg">
<g clip-path="url(#clip0_44_50)">
<path d="M13.5532 29.458C6.08812 29.458 0.0364666 23.4064 0.0364666 15.9413C0.0364666 8.47621 6.08812 2.42456 13.5532 2.42456C21.0183 2.42456 27.0699 8.47621 27.0699 15.9413C27.0699 23.4064 21.0183 29.458 13.5532 29.458Z" fill="url(#paint0_linear_44_50)"/>
<path d="M20.3566 13.5608C18.9051 13.5608 17.7284 12.3841 17.7284 10.9326C17.7284 9.48103 18.9051 8.30432 20.3566 8.30432C21.8082 8.30432 22.9849 9.48103 22.9849 10.9326C22.9849 12.3841 21.8082 13.5608 20.3566 13.5608Z" fill="#FFCC4D"/>
<path d="M10.7072 16.7072C9.46299 16.7072 8.45438 15.6986 8.45438 14.4545C8.45438 13.2103 9.46299 12.2017 10.7072 12.2017C11.9514 12.2017 12.96 13.2103 12.96 14.4545C12.96 15.6986 11.9514 16.7072 10.7072 16.7072Z" fill="#FFCC4D"/>
<path d="M7.67338 26.0188C6.22184 26.0188 5.04513 24.8421 5.04513 23.3905C5.04513 21.939 6.22184 20.7623 7.67338 20.7623C9.12493 20.7623 10.3016 21.939 10.3016 23.3905C10.3016 24.8421 9.12493 26.0188 7.67338 26.0188Z" fill="#FFCC4D"/>
<path d="M11.9387 8.19922C11.1092 8.19922 10.4368 7.52681 10.4368 6.69736C10.4368 5.8679 11.1092 5.1955 11.9387 5.1955C12.7681 5.1955 13.4406 5.8679 13.4406 6.69736C13.4406 7.52681 12.7681 8.19922 11.9387 8.19922Z" fill="#FFCC4D"/>
<path d="M17.2177 17.3455C16.803 17.3455 16.4668 17.0093 16.4668 16.5946C16.4668 16.1799 16.803 15.8437 17.2177 15.8437C17.6324 15.8437 17.9686 16.1799 17.9686 16.5946C17.9686 17.0093 17.6324 17.3455 17.2177 17.3455Z" fill="#FFCC4D"/>
<path d="M4.54204 9.93387C4.12731 9.93387 3.79111 9.59766 3.79111 9.18294C3.79111 8.76821 4.12731 8.43201 4.54204 8.43201C4.95677 8.43201 5.29297 8.76821 5.29297 9.18294C5.29297 9.59766 4.95677 9.93387 4.54204 9.93387Z" fill="#FFCC4D"/>
<path d="M15.806 26.4543C15.3912 26.4543 15.055 26.1181 15.055 25.7034C15.055 25.2887 15.3912 24.9525 15.806 24.9525C16.2207 24.9525 16.5569 25.2887 16.5569 25.7034C16.5569 26.1181 16.2207 26.4543 15.806 26.4543Z" fill="#FFCC4D"/>
<path d="M2.99509 16.8049C2.16563 16.8049 1.49323 16.1325 1.49323 15.303C1.49323 14.4736 2.16563 13.8011 2.99509 13.8011C3.82454 13.8011 4.49695 14.4736 4.49695 15.303C4.49695 16.1325 3.82454 16.8049 2.99509 16.8049Z" fill="#FFCC4D"/>
<path d="M15.5581 23.1953C14.7287 23.1953 14.0563 22.5229 14.0563 21.6934C14.0563 20.864 14.7287 20.1916 15.5581 20.1916C16.3876 20.1916 17.06 20.864 17.06 21.6934C17.06 22.5229 16.3876 23.1953 15.5581 23.1953Z" fill="#FFCC4D"/>
<path d="M31.11 19.96C30.62 19.96 30.15 20.03 29.7 20.16V19.96C29.688 18.9457 29.3111 17.9697 28.6382 17.2106C27.9653 16.4516 27.0416 15.9603 26.0361 15.8267C25.0305 15.6931 24.0105 15.9262 23.1628 16.4832C22.3151 17.0403 21.6964 17.884 21.42 18.86C20.7817 18.6008 20.0894 18.5026 19.4042 18.5741C18.719 18.6456 18.0619 18.8845 17.4908 19.2699C16.9198 19.6552 16.4522 20.1751 16.1295 20.7837C15.8067 21.3924 15.6386 22.071 15.64 22.76C15.6321 23.7879 15.9996 24.7833 16.6736 25.5594C17.3476 26.3355 18.2817 26.839 19.3005 26.9752C20.3194 27.1115 21.3529 26.8712 22.2071 26.2994C23.0614 25.7277 23.6776 24.8638 23.94 23.87C24.6762 24.164 25.4805 24.2438 26.26 24.1C26.1025 25.094 26.2536 26.1124 26.693 27.0179C27.1324 27.9233 27.8389 28.6723 28.7172 29.1637C29.5955 29.6551 30.6034 29.8653 31.6049 29.7659C32.6064 29.6666 33.5534 29.2626 34.3181 28.6082C35.0828 27.9539 35.6284 27.0808 35.8814 26.1067C36.1344 25.1326 36.0826 24.1043 35.7329 23.1606C35.3832 22.2168 34.7525 21.403 33.9259 20.8289C33.0993 20.2548 32.1164 19.9481 31.11 19.95V19.96Z" fill="#B2C0CB"/>
<path d="M32.45 26.54C32.12 26.54 31.81 26.6 31.51 26.69C31.7693 26.0495 31.8114 25.3417 31.6301 24.6749C31.4487 24.0082 31.0538 23.4192 30.5058 22.9983C29.9578 22.5774 29.287 22.3477 28.596 22.3444C27.905 22.3411 27.232 22.5644 26.68 22.98C26.4394 22.0288 25.8989 21.1802 25.1387 20.5599C24.3784 19.9396 23.4387 19.5804 22.4585 19.5355C21.4783 19.4907 20.5097 19.7625 19.6959 20.3108C18.8822 20.8591 18.2665 21.6547 17.94 22.58C17.1685 22.3471 16.3559 22.2828 15.5573 22.3915C14.7588 22.5003 13.9929 22.7795 13.3118 23.2102C12.6306 23.641 12.0501 24.2132 11.6095 24.8881C11.169 25.5629 10.8787 26.3246 10.7585 27.1215C10.6382 27.9184 10.6908 28.7319 10.9125 29.5067C11.1343 30.2815 11.5201 30.9995 12.0439 31.6121C12.5676 32.2247 13.2169 32.7175 13.9478 33.057C14.6787 33.3966 15.4741 33.5749 16.28 33.58H32.45C33.3836 33.58 34.2789 33.2092 34.939 32.549C35.5991 31.8889 35.97 30.9936 35.97 30.06C35.97 29.1265 35.5991 28.2311 34.939 27.571C34.2789 26.9109 33.3836 26.54 32.45 26.54Z" fill="#E1E8ED"/>
</g>
<defs>
<linearGradient id="paint0_linear_44_50" x1="34.9639" y1="12.6964" x2="15.8484" y2="31.812" gradientUnits="userSpaceOnUse">
<stop stop-color="#F1D591"/>
<stop offset="1" stop-color="#FFDB82"/>
</linearGradient>
<clipPath id="clip0_44_50">
<rect width="36" height="36" fill="white"/>
</clipPath>
</defs>
</svg>
